<svg version="1.0" xmlns="http://www.w3.org/2000/svg" width="110" height="110"><circle cx="55" cy="55" r="55" fill="#25b7d3"/><path d="M27 83V25a2 2 0 10-4 0v62h62a2 2 0 100-4H27z" fill="#f0f1f1"/><path fill="#0484ab" d="M33 67h12v16H33zm18-11h12v27H51zm18-22h12v49H69z"/><path d="M70.271 44.665c.403-9.111-6.655-16.824-15.766-17.227-9.111-.403-16.824 6.655-17.227 15.766a16.441 16.441 0 001.632 7.927L24.613 65.465c1.15 3.433 3.442 5.72 6.878 6.861l14.051-14.087a16.425 16.425 0 007.502 2.193c9.111.402 16.824-6.656 17.227-15.767z" fill="#9ce5f4"/><path d="M54.505 27.438c-9.111-.404-16.824 6.655-17.227 15.766a16.443 16.443 0 001.632 7.927L24.613 65.465c.64 1.913 1.649 3.456 2.999 4.657L65.45 32.284c-2.817-2.825-6.646-4.656-10.945-4.846z" fill="#c9f2f8"/><circle cx="53.775" cy="43.934" r="11.795" fill="#40c9e7"/><path d="M54.296 32.151c-6.508-.288-12.017 4.754-12.305 11.261-.153 3.448 1.2 6.606 3.465 8.865l16.661-16.662a11.737 11.737 0 00-7.821-3.464z" fill="#6fdaf1"/><path d="M38.91 51.131L24.613 65.465c1.15 3.433 3.442 5.72 6.878 6.861l14.051-14.087a16.588 16.588 0 01-6.632-7.108z" fill="#84462d"/><path d="M38.91 51.131L24.613 65.465c.64 1.913 1.649 3.456 2.999 4.657L42.124 55.61a16.502 16.502 0 01-3.214-4.479z" fill="#9c6144"/><path d="M42.506 61.281l3.035-3.043a16.572 16.572 0 01-6.631-7.107l-3.282 3.29 6.878 6.86z" fill="#f3b607"/><path d="M38.91 51.131l-3.282 3.29 3.847 3.838 2.648-2.648a16.54 16.54 0 01-3.213-4.48z" fill="#fbe158"/></svg>