<svg xmlns="http://www.w3.org/2000/svg" fill="none" height="24" width="24"><path fill="#0c6fff" fill-rule="evenodd" d="M19.481 19.1c0-.09-.06-.956-.312-1.006-.251-.05-.322 0-.473.271-.091.27-.165.546-.22.825-1.47.111-2.013.503-3.16.533-.402.091-.352.594.182.634.956.096 1.92.096 2.877 0 0 .674 0 .785.17 1.077.05.063.122.106.202.12.15.06.271 0 .392-.14.06-.128.1-.264.12-.403.09-.24.16-.485.212-.734l2.787-.232c.472 0 .553-.603.05-.674a17.95 17.95 0 00-2.827-.271z" clip-rule="evenodd"/><path fill="#020202" fill-rule="evenodd" d="M23.978 18.215c0-.292.05-.725 0-1.087-.151-1.177-1.087-1.197-2.093-1.207.027-.183.044-.368.05-.553a2.174 2.174 0 00-1.8-1.71c-2.143-.514-4.024 1.237-3.642 2.555-1.72.472-1.84.442-2.012.754-.473 1.066-.473 2.495-.473 5.583.161 1.55.644.735.654.634v-1.911c0-.322.141-1.68.131-1.68a6.467 6.467 0 01.403-2.012 15.431 15.431 0 016.317-.463h.795c.17 0 .523 0 .452.08-.07.081 0 4.095 0 4.678v.875c0 .352.775.342-6.74.252-.865 0-.885-.06-1.006 0a.303.303 0 00-.16.342c.01.044.031.086.06.12.17.252.17.162 2.736.262 6.62.282 5.945.674 6.167-1.81.146-1.229.2-2.466.16-3.703zm-6.79-2.133c-.131-1.157 3.108-1.942 3.902-.744a.86.86 0 01.081.553c-1.33-.104-2.67-.04-3.984.19zm-6.64-8.108a5.291 5.291 0 00-1.57-.684c4.025-1.6 2.838-7.364-1.337-7.223C2.249.459 2.359 5.64 4.723 7.109c.805.493.564-.111-.915.935a8.46 8.46 0 00-3.561 5.292 6.036 6.036 0 00-.13 2.887 1.69 1.69 0 002.826.694 18.54 18.54 0 00.493 4.376c.312 1.348 1.127 2.635 2.525 2.625 2.374 0 2.817.171 3.45-.583a13.197 13.197 0 001.58-4.557c.07-.533.12-1.127.17-1.901a1.7 1.7 0 001.57.513c1.147-.202 1.388-1.097 1.398-2.203a9.838 9.838 0 00-3.581-7.213zm-2.837-6.74a2.555 2.555 0 012.767 2.585 3.652 3.652 0 01-1.5-1.056c-.27-.282-.452-.815-1.005-1.006-.755-.241-.926 1.076-2.676 1.83-.35.158-.724.256-1.107.293.191-1.791 1.77-2.566 3.521-2.646zm-2.565 5.21a2.424 2.424 0 01-1.006-1.92 4.92 4.92 0 003.018-.815 3.41 3.41 0 00.684-.614c.441.51.991.916 1.61 1.187.304.14.625.238.955.292-.573 2.585-4.084 2.686-5.261 1.87zm8.048 9.557a.765.765 0 01-1.218.292 31.636 31.636 0 01-1.006-3.108c0-.08-1.005-.564-1.005.543 0 .573.14 1.921.11 2.374a14.727 14.727 0 01-.865 4.889c-.16.463-.573 1.77-1.006 1.77H7.198c.21-2.005.237-4.025.08-6.035a.342.342 0 10-.683 0c-.413 3.4-.483 3.28-.161 6.035H5.96c-.755 0-1.177-.955-1.338-1.7-1.308-6.206.392-8.37-1.006-8.168-.563.07-.413.593-1.006 2.555a5.585 5.585 0 01-.322.835.664.664 0 01-.674.191c-.684-.1-.684-.825-.684-1.458a8.742 8.742 0 011.298-4.266 7.484 7.484 0 013.37-2.776 5.16 5.16 0 013.098 0c.507.13.99.34 1.429.624a7.443 7.443 0 011.69 1.931 9.998 9.998 0 011.347 3.39c.126.696.119 1.41-.02 2.102l.05-.02z" clip-rule="evenodd"/><path fill="#0c6fff" fill-rule="evenodd" d="M6.967 11.998a.352.352 0 00.694 0 13.38 13.38 0 00-.06-3.823c-.091-.402-.534-.282-.614 0a8.43 8.43 0 00-.02 3.823z" clip-rule="evenodd"/></svg>