<svg xmlns="http://www.w3.org/2000/svg" fill="none" height="48" width="48"><path fill="#fddc5c" d="M24 48c13.255 0 24-10.745 24-24S37.255 0 24 0 0 10.745 0 24s10.745 24 24 24z"/><path fill="#0c098c" fill-rule="evenodd" d="M47.183 20.11a1.716 1.716 0 00.794-1.744L45.716 4.86a1.714 1.714 0 00-2.004-1.403L30.892 5.84a1.714 1.714 0 00-.705 3.065l5.663 4.177-9.757 13.934-8.91-6.246a2.143 2.143 0 00-2.985.525L.388 41.016a2.143 2.143 0 103.51 2.458L16.48 25.51l8.91 6.246a2.143 2.143 0 002.985-.526L39.3 15.626l5.968 4.402c.562.415 1.32.447 1.915.082z" clip-rule="evenodd"/></svg>