<svg xmlns="http://www.w3.org/2000/svg" fill="none" viewBox="-1 -1 48 48" height="48" width="48"><path fill="#e3e3e3" d="M12.916 38.584h22V9.25a1.834 1.834 0 00-1.833-1.833h-22V36.75a1.834 1.834 0 001.833 1.834z"/><path fill="#fff" d="M34.425 8.02a1.816 1.816 0 00-1.342-.603h-22v23.947L34.425 8.02z"/><path stroke="#191919" stroke-linecap="round" stroke-linejoin="round" d="M12.916 38.584h22V9.25a1.834 1.834 0 00-1.833-1.833h-22V36.75a1.834 1.834 0 001.833 1.834z" stroke-width="2"/><path fill="#ffdda1" d="M44.083 41.333l-1.833-3.545v-8.371c.077-3.26-3.815-6.166-7.333-9.167v9.988l-1.892-1.934a2.286 2.286 0 00-3.238-.054 2.283 2.283 0 00-.033 3.238l5.163 5.262v2.75c.28 1.64.905 3.202 1.833 4.583"/><path stroke="#191919" stroke-linecap="round" stroke-linejoin="round" d="M44.083 41.333l-1.833-3.545v-8.371c.077-3.26-3.815-6.166-7.333-9.167v9.988l-1.892-1.934a2.286 2.286 0 00-3.238-.054 2.283 2.283 0 00-.033 3.238l5.163 5.262v2.75c.28 1.64.905 3.202 1.833 4.583m.951-11l-2.785-2.845" stroke-width="2"/><path fill="#ffdda1" d="M1.917 4.667L3.75 8.212v8.371c-.077 3.26 3.815 6.166 7.333 9.167v-9.988l1.892 1.934a2.283 2.283 0 103.271-3.184L11.083 9.25V6.5A11.776 11.776 0 009.25 1.917"/><path stroke="#191919" stroke-linecap="round" stroke-linejoin="round" d="M1.917 4.667L3.75 8.212v8.371c-.077 3.26 3.815 6.166 7.333 9.167v-9.988l1.892 1.934a2.283 2.283 0 103.271-3.184L11.083 9.25V6.5A11.776 11.776 0 009.25 1.917m-.953 11l2.785 2.845" stroke-width="2"/></svg>