<svg xmlns="http://www.w3.org/2000/svg" fill="none" viewBox="-1 -1 48 48" height="48" width="48"><path fill="#78eb7b" d="M40.417 10.167H5.583a3.667 3.667 0 00-3.666 3.666v18.334a3.667 3.667 0 003.666 3.666h34.834a3.667 3.667 0 003.666-3.666V13.833a3.667 3.667 0 00-3.666-3.666z"/><path fill="#c9f7ca" d="M5.583 10.167a3.667 3.667 0 00-3.666 3.666v18.334c0 .924.354 1.81.986 2.484l24.484-24.484H5.583z"/><path stroke="#191919" stroke-linecap="round" stroke-linejoin="round" d="M40.417 10.167H5.583a3.667 3.667 0 00-3.666 3.666v18.334a3.667 3.667 0 003.666 3.666h34.834a3.667 3.667 0 003.666-3.666V13.833a3.667 3.667 0 00-3.666-3.666zm-29.334 6.875v11.916m23.833-11.916v11.916M14.75 17.042v7.333m9.166-7.333v7.333m3.666-7.333v7.333m-9.165-7.333v7.333m12.833-7.333v7.333m-16.5 4.583v-.916m3.667.916v-.916m5.499.916v-.916m3.666.916v-.916m3.668.916v-.916" stroke-width="2"/></svg>